{
  "accessors": [
    {
      "bufferView": 2,
      "componentType": 5126,
      "count": 2921,
      "max": [
        0.7821265459060669,
        0.3700476884841919,
        0.5690259337425232
      ],
      "min": [
        -0.7345897555351257,
        -0.3941022455692291,
        0.005619696341454983
      ],
      "type": "VEC3"
    },
    {
      "bufferView": 2,
      "byteOffset": 35052,
      "componentType": 5126,
      "count": 2921,
      "type": "VEC3"
    },
    {
      "bufferView": 1,
      "componentType": 5126,
      "count": 2921,
      "type": "VEC2"
    },
    {
      "bufferView": 1,
      "byteOffset": 23368,
      "componentType": 5126,
      "count": 2921,
      "type": "VEC2"
    },
    {
      "bufferView": 0,
      "componentType": 5125,
      "count": 14868,
      "type": "SCALAR"
    },
    {
      "bufferView": 2,
      "byteOffset": 70104,
      "componentType": 5126,
      "count": 630,
      "max": [
        0.7719889879226685,
        0.3681052327156067,
        0.4376612603664398
      ],
      "min": [
        -0.7200829982757568,
        -0.3927391767501831,
        0.058681536465883255
      ],
      "type": "VEC3"
    },
    {
      "bufferView": 2,
      "byteOffset": 77664,
      "componentType": 5126,
      "count": 630,
      "type": "VEC3"
    },
    {
      "bufferView": 1,
      "byteOffset": 46736,
      "componentType": 5126,
      "count": 630,
      "type": "VEC2"
    },
    {
      "bufferView": 1,
      "byteOffset": 51776,
      "componentType": 5126,
      "count": 630,
      "type": "VEC2"
    },
    {
      "bufferView": 0,
      "byteOffset": 59472,
      "componentType": 5125,
      "count": 3168,
      "type": "SCALAR"
    },
    {
      "bufferView": 2,
      "byteOffset": 85224,
      "componentType": 5126,
      "count": 13540,
      "max": [
        1.0004167556762695,
        0.42724329233169556,
        1.5929216146469116
      ],
      "min": [
        -0.3549060821533203,
        0.09690157324075699,
        0.14559903740882874
      ],
      "type": "VEC3"
    },
    {
      "bufferView": 2,
      "byteOffset": 247704,
      "componentType": 5126,
      "count": 13540,
      "type": "VEC3"
    },
    {
      "bufferView": 1,
      "byteOffset": 56816,
      "componentType": 5126,
      "count": 13540,
      "type": "VEC2"
    },
    {
      "bufferView": 1,
      "byteOffset": 165136,
      "componentType": 5126,
      "count": 13540,
      "type": "VEC2"
    },
    {
      "bufferView": 0,
      "byteOffset": 72144,
      "componentType": 5125,
      "count": 78480,
      "type": "SCALAR"
    },
    {
      "bufferView": 2,
      "byteOffset": 410184,
      "componentType": 5126,
      "count": 2325,
      "max": [
        1.0220425128936768,
        0.30598118901252747,
        1.6432757377624512
      ],
      "min": [
        -0.894098162651062,
        -0.6566444635391235,
        1.5676292181015015
      ],
      "type": "VEC3"
    },
    {
      "bufferView": 2,
      "byteOffset": 438084,
      "componentType": 5126,
      "count": 2325,
      "type": "VEC3"
    },
    {
      "bufferView": 1,
      "byteOffset": 273456,
      "componentType": 5126,
      "count": 2325,
      "type": "VEC2"
    },
    {
      "bufferView": 1,
      "byteOffset": 292056,
      "componentType": 5126,
      "count": 2325,
      "type": "VEC2"
    },
    {
      "bufferView": 0,
      "byteOffset": 386064,
      "componentType": 5125,
      "count": 11520,
      "type": "SCALAR"
    }
  ],
  "asset": {
    "generator": "fab-model-conversion",
    "version": "2.0"
  },
  "bufferViews": [
    {
      "buffer": 0,
      "byteLength": 432144,
      "target": 34963
    },
    {
      "buffer": 0,
      "byteLength": 310656,
      "byteOffset": 432144,
      "byteStride": 8,
      "target": 34962
    },
    {
      "buffer": 0,
      "byteLength": 465984,
      "byteOffset": 742800,
      "byteStride": 12,
      "target": 34962
    }
  ],
  "buffers": [
    {
      "byteLength": 1208784,
      "uri": "scene.bin"
    }
  ],
  "images": [
    {
      "uri": "textures/Bath_baseColor.png"
    },
    {
      "uri": "textures/Bath_metallicRoughness.png"
    },
    {
      "uri": "textures/Curtain_baseColor.png"
    },
    {
      "uri": "textures/Curtain_metallicRoughness.png"
    }
  ],
  "materials": [
    {
      "doubleSided": true,
      "name": "Bath",
      "pbrMetallicRoughness": {
        "baseColorTexture": {
          "index": 0
        },
        "metallicRoughnessTexture": {
          "index": 1
        }
      }
    },
    {
      "doubleSided": true,
      "name": "Curtain",
      "pbrMetallicRoughness": {
        "baseColorTexture": {
          "index": 2
        },
        "metallicRoughnessTexture": {
          "index": 3
        }
      }
    }
  ],
  "meshes": [
    {
      "name": "Bath_Bath_0",
      "primitives": [
        {
          "attributes": {
            "NORMAL": 1,
            "POSITION": 0,
            "TEXCOORD_0": 2,
            "TEXCOORD_1": 3
          },
          "indices": 4,
          "material": 0,
          "mode": 4
        }
      ]
    },
    {
      "name": "BathSkirt_Bath_0",
      "primitives": [
        {
          "attributes": {
            "NORMAL": 6,
            "POSITION": 5,
            "TEXCOORD_0": 7,
            "TEXCOORD_1": 8
          },
          "indices": 9,
          "material": 0,
          "mode": 4
        }
      ]
    },
    {
      "name": "BathCurtain_Curtain_0",
      "primitives": [
        {
          "attributes": {
            "NORMAL": 11,
            "POSITION": 10,
            "TEXCOORD_0": 12,
            "TEXCOORD_1": 13
          },
          "indices": 14,
          "material": 1,
          "mode": 4
        }
      ]
    },
    {
      "name": "CurtainRailing_Curtain_0",
      "primitives": [
        {
          "attributes": {
            "NORMAL": 16,
            "POSITION": 15,
            "TEXCOORD_0": 17,
            "TEXCOORD_1": 18
          },
          "indices": 19,
          "material": 1,
          "mode": 4
        }
      ]
    }
  ],
  "nodes": [
    {
      "children": [
        1
      ],
      "matrix": [
        1.0,
        0.0,
        0.0,
        0.0,
        0.0,
        2.220446049250313e-16,
        -1.0,
        0.0,
        0.0,
        1.0,
        2.220446049250313e-16,
        0.0,
        0.0,
        0.0,
        0.0,
        1.0
      ],
      "name": "Sketchfab_model"
    },
    {
      "children": [
        2
      ],
      "matrix": [
        0.009999999776482582,
        0.0,
        0.0,
        0.0,
        0.0,
        0.0,
        0.009999999776482582,
        0.0,
        0.0,
        -0.009999999776482582,
        0.0,
        0.0,
        0.0,
        0.0,
        0.0,
        1.0
      ],
      "name": "Bath_and_Curtains.fbx"
    },
    {
      "children": [
        3,
        5,
        7,
        9
      ],
      "name": "RootNode"
    },
    {
      "children": [
        4
      ],
      "matrix": [
        100.0,
        0.0,
        0.0,
        0.0,
        0.0,
        -1.629206793918314e-05,
        -99.99999999999868,
        0.0,
        0.0,
        99.99999999999868,
        -1.629206793918314e-05,
        0.0,
        0.0,
        0.0,
        0.0,
        1.0
      ],
      "name": "Bath"
    },
    {
      "mesh": 0,
      "name": "Bath_Bath_0"
    },
    {
      "children": [
        6
      ],
      "matrix": [
        100.0,
        0.0,
        0.0,
        0.0,
        0.0,
        -1.629206793918314e-05,
        -99.99999999999868,
        0.0,
        0.0,
        99.99999999999868,
        -1.629206793918314e-05,
        0.0,
        0.0,
        0.0,
        0.0,
        1.0
      ],
      "name": "BathSkirt"
    },
    {
      "mesh": 1,
      "name": "BathSkirt_Bath_0"
    },
    {
      "children": [
        8
      ],
      "matrix": [
        100.0,
        0.0,
        0.0,
        0.0,
        0.0,
        -1.629206793918314e-05,
        -99.99999999999868,
        0.0,
        0.0,
        99.99999999999868,
        -1.629206793918314e-05,
        0.0,
        0.0,
        0.0,
        0.0,
        1.0
      ],
      "name": "BathCurtain"
    },
    {
      "mesh": 2,
      "name": "BathCurtain_Curtain_0"
    },
    {
      "children": [
        10
      ],
      "matrix": [
        100.0,
        0.0,
        0.0,
        0.0,
        0.0,
        -1.629206793918314e-05,
        -99.99999999999868,
        0.0,
        0.0,
        99.99999999999868,
        -1.629206793918314e-05,
        0.0,
        0.0,
        0.0,
        0.0,
        1.0
      ],
      "name": "CurtainRailing"
    },
    {
      "mesh": 3,
      "name": "CurtainRailing_Curtain_0"
    }
  ],
  "samplers": [
    {
      "magFilter": 9729,
      "minFilter": 9987,
      "wrapS": 10497,
      "wrapT": 10497
    }
  ],
  "scene": 0,
  "scenes": [
    {
      "name": "Sketchfab_Scene",
      "nodes": [
        0
      ]
    }
  ],
  "textures": [
    {
      "sampler": 0,
      "source": 0
    },
    {
      "sampler": 0,
      "source": 1
    },
    {
      "sampler": 0,
      "source": 2
    },
    {
      "sampler": 0,
      "source": 3
    }
  ]
}
