{
  "accessors": [
    {
      "bufferView": 2,
      "componentType": 5126,
      "count": 177,
      "max": [
        13.85250473022461,
        24.142120361328125,
        1.2050137519836426
      ],
      "min": [
        -1.7757889032363892,
        0.0,
        -0.7867395877838135
      ],
      "type": "VEC3"
    },
    {
      "bufferView": 2,
      "byteOffset": 2124,
      "componentType": 5126,
      "count": 177,
      "max": [
        0.9990289807319641,
        0.05960530415177345,
        0.704810619354248
      ],
      "min": [
        -0.9995499849319458,
        -0.06937485933303833,
        -0.9999875426292419
      ],
      "type": "VEC3"
    },
    {
      "bufferView": 1,
      "componentType": 5126,
      "count": 177,
      "max": [
        1.0,
        1.0
      ],
      "min": [
        0.49339741468429565,
        0.0
      ],
      "type": "VEC2"
    },
    {
      "bufferView": 0,
      "componentType": 5125,
      "count": 696,
      "type": "SCALAR"
    },
    {
      "bufferView": 2,
      "byteOffset": 4248,
      "componentType": 5126,
      "count": 186,
      "max": [
        -1.7060116529464722,
        24.142120361328125,
        1.3683524131774902
      ],
      "min": [
        -16.020397186279297,
        0.0,
        -1.0594202280044556
      ],
      "type": "VEC3"
    },
    {
      "bufferView": 2,
      "byteOffset": 6480,
      "componentType": 5126,
      "count": 186,
      "max": [
        0.9999179244041443,
        0.05918290093541145,
        0.6980323195457458
      ],
      "min": [
        -0.999996542930603,
        -0.07491803169250488,
        -0.9998989701271057
      ],
      "type": "VEC3"
    },
    {
      "bufferView": 1,
      "byteOffset": 1416,
      "componentType": 5126,
      "count": 186,
      "max": [
        0.49339741468429565,
        1.0
      ],
      "min": [
        0.0,
        0.0
      ],
      "type": "VEC2"
    },
    {
      "bufferView": 0,
      "byteOffset": 2784,
      "componentType": 5125,
      "count": 732,
      "type": "SCALAR"
    },
    {
      "bufferView": 2,
      "byteOffset": 8712,
      "componentType": 5126,
      "count": 96,
      "max": [
        0.5,
        0.5000152587890625,
        0.5
      ],
      "min": [
        -0.4999999403953552,
        -0.499969482421875,
        -0.5
      ],
      "type": "VEC3"
    },
    {
      "bufferView": 2,
      "byteOffset": 9864,
      "componentType": 5126,
      "count": 96,
      "max": [
        0.9999991655349731,
        0.9921569228172302,
        0.9921616315841675
      ],
      "min": [
        -0.9999991655349731,
        -0.9921632409095764,
        -0.9921585321426392
      ],
      "type": "VEC3"
    },
    {
      "bufferView": 1,
      "byteOffset": 2904,
      "componentType": 5126,
      "count": 96,
      "max": [
        0.875,
        1.0
      ],
      "min": [
        0.125,
        0.0
      ],
      "type": "VEC2"
    },
    {
      "bufferView": 0,
      "byteOffset": 5712,
      "componentType": 5125,
      "count": 324,
      "type": "SCALAR"
    },
    {
      "bufferView": 2,
      "byteOffset": 11016,
      "componentType": 5126,
      "count": 96,
      "max": [
        0.5,
        0.5000152587890625,
        0.4999847412109375
      ],
      "min": [
        -0.4999999403953552,
        -0.499969482421875,
        -0.5000076293945313
      ],
      "type": "VEC3"
    },
    {
      "bufferView": 2,
      "byteOffset": 12168,
      "componentType": 5126,
      "count": 96,
      "max": [
        0.9999991655349731,
        0.992156982421875,
        0.9921600818634033
      ],
      "min": [
        -0.9999991655349731,
        -0.9921632409095764,
        -0.9921601414680481
      ],
      "type": "VEC3"
    },
    {
      "bufferView": 1,
      "byteOffset": 3672,
      "componentType": 5126,
      "count": 96,
      "max": [
        0.875,
        1.0
      ],
      "min": [
        0.125,
        0.0
      ],
      "type": "VEC2"
    },
    {
      "bufferView": 0,
      "byteOffset": 7008,
      "componentType": 5125,
      "count": 324,
      "type": "SCALAR"
    },
    {
      "bufferView": 2,
      "byteOffset": 13320,
      "componentType": 5126,
      "count": 64,
      "max": [
        0.49999237060546875,
        0.5,
        0.5
      ],
      "min": [
        -0.5,
        -0.5,
        -0.4999985694885254
      ],
      "type": "VEC3"
    },
    {
      "bufferView": 2,
      "byteOffset": 14088,
      "componentType": 5126,
      "count": 64,
      "max": [
        0.9981918334960938,
        0.9960378408432007,
        0.9995030164718628
      ],
      "min": [
        -0.9981911182403564,
        -0.9960378408432007,
        0.0
      ],
      "type": "VEC3"
    },
    {
      "bufferView": 1,
      "byteOffset": 4440,
      "componentType": 5126,
      "count": 64,
      "max": [
        0.875,
        1.0
      ],
      "min": [
        0.125,
        0.0
      ],
      "type": "VEC2"
    },
    {
      "bufferView": 0,
      "byteOffset": 8304,
      "componentType": 5125,
      "count": 198,
      "type": "SCALAR"
    },
    {
      "bufferView": 2,
      "byteOffset": 14856,
      "componentType": 5126,
      "count": 64,
      "max": [
        0.49999237060546875,
        0.5,
        0.5
      ],
      "min": [
        -0.5,
        -0.5,
        -0.4999985694885254
      ],
      "type": "VEC3"
    },
    {
      "bufferView": 2,
      "byteOffset": 15624,
      "componentType": 5126,
      "count": 64,
      "max": [
        0.9981918334960938,
        0.9960378408432007,
        0.9995030164718628
      ],
      "min": [
        -0.9981911182403564,
        -0.9960378408432007,
        0.0
      ],
      "type": "VEC3"
    },
    {
      "bufferView": 1,
      "byteOffset": 4952,
      "componentType": 5126,
      "count": 64,
      "max": [
        0.875,
        1.0
      ],
      "min": [
        0.125,
        0.0
      ],
      "type": "VEC2"
    },
    {
      "bufferView": 0,
      "byteOffset": 9096,
      "componentType": 5125,
      "count": 198,
      "type": "SCALAR"
    }
  ],
  "asset": {
    "extras": {
      "author": "hikaruueda (https://sketchfab.com/hikaruueda)",
      "license": "CC-BY-4.0 (http://creativecommons.org/licenses/by/4.0/)",
      "source": "https://sketchfab.com/3d-models/curtain-5c0464fcd3104b80ac2c462c2fe55de8",
      "title": "Curtain"
    },
    "generator": "Sketchfab-16.16.0",
    "version": "2.0"
  },
  "bufferViews": [
    {
      "buffer": 0,
      "byteLength": 9888,
      "name": "floatBufferViews",
      "target": 34963
    },
    {
      "buffer": 0,
      "byteLength": 5464,
      "byteOffset": 9888,
      "byteStride": 8,
      "name": "floatBufferViews",
      "target": 34962
    },
    {
      "buffer": 0,
      "byteLength": 16392,
      "byteOffset": 15352,
      "byteStride": 12,
      "name": "floatBufferViews",
      "target": 34962
    }
  ],
  "buffers": [
    {
      "byteLength": 31744,
      "uri": "scene.bin"
    }
  ],
  "materials": [
    {
      "doubleSided": true,
      "name": "ka_ten2",
      "pbrMetallicRoughness": {
        "metallicFactor": 0.0,
        "roughnessFactor": 0.6
      }
    },
    {
      "doubleSided": true,
      "name": "material",
      "pbrMetallicRoughness": {
        "metallicFactor": 0.0,
        "roughnessFactor": 0.6
      }
    },
    {
      "doubleSided": true,
      "name": "lambert10",
      "pbrMetallicRoughness": {
        "baseColorFactor": [
          0.149,
          0.141505,
          0.102214,
          1.0
        ],
        "metallicFactor": 0.0,
        "roughnessFactor": 0.6
      }
    }
  ],
  "meshes": [
    {
      "name": "_ka_ten__ka_ten2_0",
      "primitives": [
        {
          "attributes": {
            "NORMAL": 1,
            "POSITION": 0,
            "TEXCOORD_0": 2
          },
          "indices": 3,
          "material": 0,
          "mode": 4
        }
      ]
    },
    {
      "name": "_ka_ten1__ka_ten2_0",
      "primitives": [
        {
          "attributes": {
            "NORMAL": 5,
            "POSITION": 4,
            "TEXCOORD_0": 6
          },
          "indices": 7,
          "material": 0,
          "mode": 4
        }
      ]
    },
    {
      "name": "_pCube228__gin_0",
      "primitives": [
        {
          "attributes": {
            "NORMAL": 9,
            "POSITION": 8,
            "TEXCOORD_0": 10
          },
          "indices": 11,
          "material": 1,
          "mode": 4
        }
      ]
    },
    {
      "name": "_pCube227__gin_0",
      "primitives": [
        {
          "attributes": {
            "NORMAL": 13,
            "POSITION": 12,
            "TEXCOORD_0": 14
          },
          "indices": 15,
          "material": 1,
          "mode": 4
        }
      ]
    },
    {
      "name": "_pCube229__lambert10_0",
      "primitives": [
        {
          "attributes": {
            "NORMAL": 17,
            "POSITION": 16,
            "TEXCOORD_0": 18
          },
          "indices": 19,
          "material": 2,
          "mode": 4
        }
      ]
    },
    {
      "name": "_pCube230__lambert10_0",
      "primitives": [
        {
          "attributes": {
            "NORMAL": 21,
            "POSITION": 20,
            "TEXCOORD_0": 22
          },
          "indices": 23,
          "material": 2,
          "mode": 4
        }
      ]
    }
  ],
  "nodes": [
    {
      "children": [
        1
      ],
      "matrix": [
        1.0,
        0.0,
        0.0,
        0.0,
        0.0,
        2.220446049250313e-16,
        -1.0,
        0.0,
        0.0,
        1.0,
        2.220446049250313e-16,
        0.0,
        0.0,
        0.0,
        0.0,
        1.0
      ],
      "name": "Sketchfab_model"
    },
    {
      "children": [
        2
      ],
      "matrix": [
        0.009999999776482582,
        0.0,
        0.0,
        0.0,
        0.0,
        0.0,
        0.009999999776482582,
        0.0,
        0.0,
        -0.009999999776482582,
        0.0,
        0.0,
        0.0,
        0.0,
        0.0,
        1.0
      ],
      "name": "curtain.fbx"
    },
    {
      "children": [
        3
      ],
      "name": "RootNode"
    },
    {
      "children": [
        4,
        6,
        8,
        10,
        12,
        14
      ],
      "matrix": [
        1.0,
        0.0,
        0.0,
        0.0,
        0.0,
        1.0,
        0.0,
        0.0,
        0.0,
        0.0,
        1.0,
        0.0,
        -96.23381042480469,
        -6.3343963623046875,
        -18.829689025878906,
        1.0
      ],
      "name": "ka_ten"
    },
    {
      "children": [
        5
      ],
      "matrix": [
        -4.89059703636721,
        5.989254006506636e-16,
        0.014429887646217417,
        0.0,
        6.433403999719775e-16,
        5.237818717956543,
        6.41445000648184e-16,
        0.0,
        -0.01175394069771331,
        4.892993938840277e-16,
        -3.983661477568135,
        0.0,
        203.22975158691406,
        101.85795593261719,
        122.25117492675781,
        1.0
      ],
      "name": "_ka_ten"
    },
    {
      "mesh": 0,
      "name": "_ka_ten__ka_ten2_0"
    },
    {
      "children": [
        7
      ],
      "matrix": [
        -4.803797315772006,
        5.882955006512834e-16,
        0.014173781856556565,
        0.0,
        6.433403999719775e-16,
        5.237818717956543,
        6.41445000648184e-16,
        0.0,
        -0.011753940697713312,
        4.892993938840277e-16,
        -3.983661477568135,
        0.0,
        218.2072296142578,
        101.85795593261719,
        120.85417175292969,
        1.0
      ],
      "name": "_ka_ten1"
    },
    {
      "mesh": 1,
      "name": "_ka_ten1__ka_ten2_0"
    },
    {
      "children": [
        9
      ],
      "matrix": [
        168.0901641845703,
        0.0,
        0.0,
        0.0,
        0.0,
        1.5247172117233276,
        0.0,
        0.0,
        0.0,
        0.0,
        1.5247172117233276,
        0.0,
        216.78634643554688,
        228.90318298339844,
        121.71212768554688,
        1.0
      ],
      "name": "_pCube228"
    },
    {
      "mesh": 2,
      "name": "_pCube228__gin_0"
    },
    {
      "children": [
        11
      ],
      "matrix": [
        168.0901641845703,
        0.0,
        0.0,
        0.0,
        0.0,
        1.5247172117233276,
        0.0,
        0.0,
        0.0,
        0.0,
        1.5247172117233276,
        0.0,
        216.78634643554688,
        228.90318298339844,
        117.69480895996094,
        1.0
      ],
      "name": "_pCube227"
    },
    {
      "mesh": 3,
      "name": "_pCube227__gin_0"
    },
    {
      "children": [
        13
      ],
      "matrix": [
        2.995466470718384,
        0.0,
        0.0,
        0.0,
        0.0,
        2.508828639984131,
        0.0,
        0.0,
        0.0,
        0.0,
        10.658027648925781,
        0.0,
        300.0775451660156,
        228.98849487304688,
        117.44528198242188,
        1.0
      ],
      "name": "_pCube229"
    },
    {
      "mesh": 4,
      "name": "_pCube229__lambert10_0"
    },
    {
      "children": [
        15
      ],
      "matrix": [
        2.995466470718384,
        0.0,
        0.0,
        0.0,
        0.0,
        2.508828639984131,
        0.0,
        0.0,
        0.0,
        0.0,
        10.658027648925781,
        0.0,
        131.9870147705078,
        228.98849487304688,
        117.44528198242188,
        1.0
      ],
      "name": "_pCube230"
    },
    {
      "mesh": 5,
      "name": "_pCube230__lambert10_0"
    }
  ],
  "scene": 0,
  "scenes": [
    {
      "name": "Sketchfab_Scene",
      "nodes": [
        0
      ]
    }
  ]
}
